<?xml version="1.0" encoding="UTF-8"?>
<svg id="Layer_1" xmlns="http://www.w3.org/2000/svg" version="1.1" viewBox="0 0 1920 1080">
  <!-- Generator: Adobe Illustrator 30.2.1, SVG Export Plug-In . SVG Version: 2.1.1 Build 1)  -->
  <defs>
    <style>
      .st0 {
        fill: #fcf2eb;
      }

      .st1 {
        fill: #fcb365;
      }

      .st2 {
        fill: #fb8e21;
      }
    </style>
  </defs>
  <path class="st0" d="M1,1080H0V0h1920v1080H355.57c-1.98-1.01-1.44-2.27-.04-3.57,63.22-58.45,122.49-116.94,178.04-183.03,47.62-56.64,91-116.74,128.49-179.65l3.54-3.43,1.05-4.48c52.58-93.82,87.98-199.62,77.04-307.99-11.75-116.36-79.84-216.04-156.15-301.36L496.74,3.21l-24.04.06-4.76-1.99-.96,2c-154.65-.34-309.29-.35-463.9-.04l-.08,1075.5-2,1.26h0Z"/>
  <g>
    <path class="st2" d="M467.94,1.28c2.78,1.35,5.62,2.75,7.92,4.85,34.93,31.86,70.01,68.62,101.08,104.28,61.97,71.11,118.01,154.14,137.35,247.42,15.16,73.13,7.65,148.68-15.13,219.55-9.85,30.66-22.53,66.83-38.29,94.73-2.3,4.08-4.73,8.23-8.15,11.42.05,1,.05,2-.08,2.97s-.28,1.9-.69,2.68c-20.94,39.17-46.87,77.56-72.83,113.71-74.6,103.87-161.36,191.08-258.03,275.02l-5.28,2.08H1L1.08.87l466.86.41h0Z"/>
    <path class="st1" d="M665.6,710.33c-13.56,23.27-27.25,46.27-42.84,69.09-36.85,53.95-77.3,104.9-120.97,153.64-45.56,50.86-93.48,99.05-144.32,144.26-1.22,1.08-1.46,1.84-1.9,2.67h-39.76c38.19-34.69,92.24-80.98,127.1-118.63l48.63-52.52c53.67-57.96,124.4-156.24,161.17-225.32l3.22-1.99c4.45-17,16.98-7.25,8.71,4.68,5.04,6.31,4.99,13.19-.16,20.64,2.05.56,1.97,1.54,1.1,3.47h.02Z"/>
    <path class="st2" d="M665.6,710.33c-.28-1.43-2.07-1.57-3.84-2.36,3.49-10,8.08-10.88,2.46-18.19-4.83-6.27,3.35-7.25,1.23-12.41-.5-1.21-1.88-3.77-3.17-3.29-4.64,1.72-2.87,8.54-5.77,9.34-1.04.29-3.36,2.05-3.78.12,20.28-38.09,36.17-78.35,48.68-120.14,10.19-34.04,15.87-68.36,18.1-103.79,4.17-66.17-8.84-130.86-37.31-190.47C631.76,163.54,550.79,80.88,467.94,1.28l29.62-.06,81.92,83.92c31.13,31.89,57.89,66.77,83.32,103.4,25.25,36.37,46.08,75.01,61.49,116.5,33.08,89.05,28.83,182.49,1.05,272.33-14.51,46.94-35.31,91.02-59.74,132.96Z"/>
  </g>
</svg>