<?xml version="1.0" encoding="UTF-8"?>
<svg id="Layer_1" data-name="Layer 1" xmlns="http://www.w3.org/2000/svg" viewBox="0 0 12.92 12.97">
  <defs>
    <style>
      .cls-1 {
        fill: #7086fc;
      }
    </style>
  </defs>
  <path class="cls-1" d="M10.95,2.89l.02-1.64c.29.01.54-.02.84.01.57.06,1.11.53,1.11,1.16v9.43c0,.52-.48,1.12-1.03,1.12H1.03C.5,12.97,0,12.39,0,11.88V2.42C0,1.79.54,1.32,1.12,1.26c.3-.03.55,0,.84-.01v1.62c.01.42.34.75.67.9.42.19.85.12,1.2-.16.2-.16.38-.43.38-.7v-1.65s4.5,0,4.5,0l.02,1.68c0,.57.59.95,1.12.94s1.09-.41,1.1-.98ZM11.87,4.4H1.05v7.55h10.81v-7.55Z"/>
  <g>
    <path class="cls-1" d="M3.79,2.86c0,.39-.38.65-.72.63s-.7-.27-.7-.65V.64C2.43.27,2.71,0,3.07,0s.65.24.74.61v2.25Z"/>
    <path class="cls-1" d="M10.53,2.75c0,.36-.24.69-.66.74-.33.04-.74-.24-.77-.63-.05-.74,0-1.48-.02-2.23,0-.2.13-.36.27-.48.21-.18.49-.2.75-.07.2.1.4.31.4.59v2.08Z"/>
  </g>
  <g>
    <path class="cls-1" d="M10.41,7.56h-1.54c-.15-.04-.28-.11-.32-.25v-1.08c.04-.16.14-.31.31-.31h1.56c.18.04.31.18.31.37v.94c0,.17-.15.31-.33.35Z"/>
    <path class="cls-1" d="M4.04,7.56h-1.54c-.16-.04-.32-.14-.32-.31v-.97c0-.19.13-.34.31-.38h1.59c.15.05.27.15.28.32.02.33,0,.65,0,.99,0,.17-.15.31-.32.35Z"/>
    <path class="cls-1" d="M7.21,7.55h-1.53c-.15-.04-.28-.1-.32-.25v-1.15c.06-.17.2-.26.37-.26h1.41c.18,0,.32.09.37.26v1.14c-.04.14-.16.21-.31.25Z"/>
    <path class="cls-1" d="M10.5,10.39h-1.69c-.15-.04-.26-.13-.26-.28v-.93c0-.18.08-.34.25-.41h1.68c.15.01.22.2.25.32v.99c-.03.14-.09.26-.24.32Z"/>
    <path class="cls-1" d="M4.12,10.39h-1.69c-.12-.04-.21-.13-.25-.25v-1.05c.04-.15.11-.28.25-.32h1.68c.14.05.25.19.25.34v.97c-.03.13-.1.25-.24.31Z"/>
    <path class="cls-1" d="M7.28,10.39h-1.66c-.12-.04-.21-.14-.25-.25v-1.12c.05-.12.13-.21.25-.25h1.65c.14.04.23.14.26.28v1.09c-.04.11-.12.19-.24.25Z"/>
  </g>
</svg>