<?xml version="1.0" encoding="UTF-8"?>
<svg id="Layer_1" data-name="Layer 1" xmlns="http://www.w3.org/2000/svg" viewBox="0 0 20.24 16.1">
  <defs>
    <style>
      .cls-1 {
        fill: #fce2c2;
      }

      .cls-2 {
        fill: #fdf8f2;
      }
    </style>
  </defs>
  <path class="cls-1" d="M17.28,16.09H3.03c-1.56,0-3.01-1.05-3.01-2.7V2.8C0,1.25,1.28,0,2.84,0h14.59c1.5,0,2.82,1.19,2.82,2.7v10.68c0,1.59-1.38,2.71-2.96,2.71Z"/>
  <path class="cls-2" d="M17.63,14.55l-14.92.05-.07-.07c-.53-.11-1.08-.58-1.08-1.24V2.69s6.49,6.46,6.49,6.46c1.09,1.09,2.87,1.25,4.01.12l6.61-6.56.04,10.21c0,.81-.28,1.38-1.06,1.63Z"/>
  <path class="cls-2" d="M11.08,8.07c-.58.55-1.32.54-1.88.03L2.69,1.56h14.88s-6.49,6.5-6.49,6.5Z"/>
</svg>