<?xml version="1.0" encoding="UTF-8"?>
<svg id="Layer_1" data-name="Layer 1" xmlns="http://www.w3.org/2000/svg" viewBox="0 0 11.52 16">
  <defs>
    <style>
      .cls-1 {
        fill: #7086fc;
      }

      .cls-2 {
        fill: #fdf8f2;
      }
    </style>
  </defs>
  <path class="cls-1" d="M1.29,16C.61,16,0,15.49,0,14.79v-6.59c0-.63.39-1.12,1-1.29v-2.1C.99,2.16,3.08.05,5.68,0c2.6-.05,4.83,2.02,4.83,4.66v2.25c.59.16,1.01.63,1.01,1.24v6.55c0,.73-.57,1.29-1.33,1.29"/>
  <path class="cls-2" d="M8.98,6.88H2.53v-2.03c0-1.84,1.41-3.32,3.2-3.33s3.31,1.48,3.25,3.33v2.03Z"/>
  <path class="cls-2" d="M6.24,13.89c-.32.05-.61.01-.96.02v-2.57c-.56-.26-.84-.81-.73-1.38s.61-.97,1.18-.98,1.09.39,1.22.94c.13.58-.15,1.15-.71,1.41v2.55h0Z"/>
</svg>