<?xml version="1.0" encoding="UTF-8"?>
<svg id="Layer_1" data-name="Layer 1" xmlns="http://www.w3.org/2000/svg" viewBox="0 0 11.55 16">
  <defs>
    <style>
      .cls-1 {
        fill: #fce2c2;
      }

      .cls-2 {
        fill: #fdf8f2;
      }
    </style>
  </defs>
  <g id="rvdXoO">
    <g>
      <path class="cls-1" d="M10.22,16H1.31c-.68,0-1.29-.51-1.29-1.21v-6.59c-.01-.63.39-1.12,1-1.29v-2.1C1.01,2.16,3.1.05,5.7,0s4.83,2.02,4.83,4.66v2.25c.59.16,1.01.63,1.01,1.24v6.55c0,.73-.57,1.29-1.33,1.29Z"/>
      <path class="cls-2" d="M9,6.88H2.55s0-2.03,0-2.03c0-1.84,1.41-3.32,3.2-3.33s3.31,1.48,3.25,3.33v2.03Z"/>
      <path class="cls-2" d="M6.26,13.89c-.32.05-.61.01-.96.02v-2.57c-.56-.26-.84-.81-.73-1.38s.61-.97,1.18-.98,1.09.39,1.22.94c.13.58-.15,1.15-.71,1.41v2.55Z"/>
    </g>
  </g>
</svg>