<?xml version="1.0" encoding="UTF-8"?>
<svg id="Layer_1" data-name="Layer 1" xmlns="http://www.w3.org/2000/svg" viewBox="0 0 15.24 15.82">
  <defs>
    <style>
      .cls-1 {
        fill: #7086fc;
      }
    </style>
  </defs>
  <path class="cls-1" d="M15.24,15.82H0c.02-.8.11-1.62.4-2.35.26-.64.51-1.26.93-1.79l.5-.64c.08-.1.22-.18.28-.29.07-.15.2-.17.29-.26,1.19-1.14,2.84-1.82,4.47-1.98.33-.03,1.1-.03,1.43,0,.97.08,1.88.35,2.75.76.42.2,1.24.72,1.57,1.04.34.34.36.23.76.73l.57.71c.42.59.69,1.25.95,1.95s.31,1.41.33,2.13Z"/>
  <path class="cls-1" d="M6.16,7.9c-.35-.12-.63-.29-.93-.47-.4-.24-.7-.56-1-.93-1.14-1.4-1.01-3.78-.02-4.84l.27-.29c.29-.31.6-.56.96-.78C6.18.15,7.06-.05,7.93.01c.79.06,1.5.32,2.15.75.38.25.66.55.95.91,1.07,1.32,1.06,3.49,0,4.81-.29.36-.57.67-.95.91-.32.2-.63.38-.98.51-.97.34-1.96.35-2.95,0Z"/>
</svg>